# xmcd
#
# Track frame offsets:
# 150
# 16805
# 34600
# 52285
# 69660
# 84732
# 102435
# 117640
# 135037
# 152470
# 166295
# 185385
#
# Disc length: 2666 seconds
#
#
# Revision: 0
# Processed by: cddbd v1.5.1PL0 Copyright (c) Steve Scherf et al.
# Submitted via: FreeRIP 2.942 
#
DISCID=980a680c
DTITLE=SAMBA VIP - SAMBA VIP
DYEAR=2004
DGENRE=SAMBA E PAGODE
TTITLE0=SAMBA VIP
TTITLE1=SAMBA VIP
TTITLE2=SAMBA VIP
TTITLE3=SAMBA VIP
TTITLE4=SAMBA VIP
TTITLE5=SAMBA VIP
TTITLE6=SAMBA VIP
TTITLE7=SAMBA VIP
TTITLE8=SAMBA VIP
TTITLE9=SAMBA VIP
TTITLE10=SAMBA VIP
TTITLE11=SAMBA VIP
EXTD=
EXTT0=
EXTT1=
EXTT2=
EXTT3=
EXTT4=
EXTT5=
EXTT6=
EXTT7=
EXTT8=
EXTT9=
EXTT10=
EXTT11=
PLAYORDER=
